# xmcd
#
# Track frame offsets:
#	150
#	15760
#	31942
#	47695
#
# Disc length: 821 seconds
#
# Revision: 0
# Processed by: cddbd v1.5.2PL0 Copyright (c) Steve Scherf et al.
# Submitted via: audiograbber 1.83.01
#
DISCID=1e033304
DTITLE=Christie - Jo Jo's Band (Promotion-Single-CD)
DYEAR=1900
DGENRE=
TTITLE0=Jo Jo's Band (Christie '70)
TTITLE1=High looking high (Vic Elmes with China)
TTITLE2=East and the West Side (Vic Elmes with China)
TTITLE3=Pull me out (Vic Elmes)
EXTD=
EXTT0=
EXTT1=
EXTT2=
EXTT3=
PLAYORDER=
